<mxfile host="app.diagrams.net" modified="2024-06-03T11:07:26.186Z" agent="Mozilla/5.0 (Windows NT 10.0; Win64; x64) AppleWebKit/537.36 (KHTML, like Gecko) Chrome/125.0.0.0 Safari/537.36" etag="Kat7IKpgPslJAqhbg6Ko" version="24.4.13" type="device">
  <diagram name="Page-1" id="WiqbfY8mRj4KW2a8M3i9">
    <mxGraphModel dx="2333" dy="1240" grid="1" gridSize="10" guides="1" tooltips="1" connect="1" arrows="1" fold="1" page="1" pageScale="1" pageWidth="1100" pageHeight="850" math="0" shadow="0">
      <root>
        <mxCell id="0" />
        <mxCell id="1" parent="0" />
        <mxCell id="HoFB2v5wiJ9N7MJh8CdE-1" value="&lt;font style=&quot;font-size: 16px;&quot;&gt;IDLE&lt;/font&gt;" style="ellipse;whiteSpace=wrap;html=1;" vertex="1" parent="1">
          <mxGeometry x="60" y="170" width="120" height="80" as="geometry" />
        </mxCell>
        <mxCell id="HoFB2v5wiJ9N7MJh8CdE-2" value="&lt;font style=&quot;font-size: 16px;&quot;&gt;Registering&lt;/font&gt;" style="ellipse;whiteSpace=wrap;html=1;" vertex="1" parent="1">
          <mxGeometry x="240" y="170" width="210" height="80" as="geometry" />
        </mxCell>
        <mxCell id="HoFB2v5wiJ9N7MJh8CdE-3" value="&lt;font style=&quot;font-size: 16px;&quot;&gt;Active&lt;/font&gt;" style="ellipse;whiteSpace=wrap;html=1;" vertex="1" parent="1">
          <mxGeometry x="510" y="170" width="120" height="80" as="geometry" />
        </mxCell>
        <mxCell id="HoFB2v5wiJ9N7MJh8CdE-4" value="LoggedIn" style="ellipse;whiteSpace=wrap;html=1;" vertex="1" parent="1">
          <mxGeometry x="690" y="170" width="120" height="80" as="geometry" />
        </mxCell>
        <mxCell id="HoFB2v5wiJ9N7MJh8CdE-5" value="&lt;font style=&quot;font-size: 16px;&quot;&gt;Browsing&lt;/font&gt;" style="ellipse;whiteSpace=wrap;html=1;" vertex="1" parent="1">
          <mxGeometry x="870" y="170" width="120" height="80" as="geometry" />
        </mxCell>
        <mxCell id="HoFB2v5wiJ9N7MJh8CdE-6" value="&lt;font style=&quot;font-size: 16px;&quot;&gt;Adding to cart&lt;/font&gt;" style="ellipse;whiteSpace=wrap;html=1;" vertex="1" parent="1">
          <mxGeometry x="1060" y="170" width="120" height="80" as="geometry" />
        </mxCell>
        <mxCell id="HoFB2v5wiJ9N7MJh8CdE-7" value="&lt;font style=&quot;font-size: 16px;&quot;&gt;Checking out&lt;/font&gt;" style="ellipse;whiteSpace=wrap;html=1;" vertex="1" parent="1">
          <mxGeometry x="1220" y="170" width="120" height="80" as="geometry" />
        </mxCell>
        <mxCell id="HoFB2v5wiJ9N7MJh8CdE-8" value="&lt;font style=&quot;font-size: 16px;&quot;&gt;Tracking Order&lt;/font&gt;" style="ellipse;whiteSpace=wrap;html=1;" vertex="1" parent="1">
          <mxGeometry x="1380" y="170" width="120" height="80" as="geometry" />
        </mxCell>
        <mxCell id="HoFB2v5wiJ9N7MJh8CdE-12" value="" style="curved=1;endArrow=classic;html=1;rounded=0;exitX=1;exitY=0.5;exitDx=0;exitDy=0;entryX=0;entryY=0.5;entryDx=0;entryDy=0;" edge="1" parent="1" source="HoFB2v5wiJ9N7MJh8CdE-1" target="HoFB2v5wiJ9N7MJh8CdE-2">
          <mxGeometry width="50" height="50" relative="1" as="geometry">
            <mxPoint x="250" y="270" as="sourcePoint" />
            <mxPoint x="300" y="220" as="targetPoint" />
            <Array as="points">
              <mxPoint x="210" y="200" />
            </Array>
          </mxGeometry>
        </mxCell>
        <mxCell id="HoFB2v5wiJ9N7MJh8CdE-13" value="" style="curved=1;endArrow=classic;html=1;rounded=0;exitX=1;exitY=0.5;exitDx=0;exitDy=0;entryX=0;entryY=0.5;entryDx=0;entryDy=0;" edge="1" parent="1" source="HoFB2v5wiJ9N7MJh8CdE-1" target="HoFB2v5wiJ9N7MJh8CdE-2">
          <mxGeometry width="50" height="50" relative="1" as="geometry">
            <mxPoint x="190" y="220" as="sourcePoint" />
            <mxPoint x="250" y="220" as="targetPoint" />
            <Array as="points">
              <mxPoint x="210" y="220" />
            </Array>
          </mxGeometry>
        </mxCell>
        <mxCell id="HoFB2v5wiJ9N7MJh8CdE-14" value="" style="curved=1;endArrow=classic;html=1;rounded=0;entryX=0;entryY=0.5;entryDx=0;entryDy=0;exitX=1;exitY=0.5;exitDx=0;exitDy=0;" edge="1" parent="1" source="HoFB2v5wiJ9N7MJh8CdE-2" target="HoFB2v5wiJ9N7MJh8CdE-3">
          <mxGeometry width="50" height="50" relative="1" as="geometry">
            <mxPoint x="460" y="210" as="sourcePoint" />
            <mxPoint x="510" y="210" as="targetPoint" />
            <Array as="points">
              <mxPoint x="480" y="200" />
            </Array>
          </mxGeometry>
        </mxCell>
        <mxCell id="HoFB2v5wiJ9N7MJh8CdE-15" value="" style="curved=1;endArrow=classic;html=1;rounded=0;exitX=1;exitY=0.5;exitDx=0;exitDy=0;entryX=0;entryY=0.5;entryDx=0;entryDy=0;" edge="1" parent="1" source="HoFB2v5wiJ9N7MJh8CdE-2" target="HoFB2v5wiJ9N7MJh8CdE-3">
          <mxGeometry width="50" height="50" relative="1" as="geometry">
            <mxPoint x="450" y="210" as="sourcePoint" />
            <mxPoint x="510" y="210" as="targetPoint" />
            <Array as="points">
              <mxPoint x="480" y="220" />
            </Array>
          </mxGeometry>
        </mxCell>
        <mxCell id="HoFB2v5wiJ9N7MJh8CdE-17" value="" style="curved=1;endArrow=classic;html=1;rounded=0;exitX=1;exitY=0.5;exitDx=0;exitDy=0;entryX=0;entryY=0.5;entryDx=0;entryDy=0;" edge="1" parent="1" source="HoFB2v5wiJ9N7MJh8CdE-3" target="HoFB2v5wiJ9N7MJh8CdE-4">
          <mxGeometry width="50" height="50" relative="1" as="geometry">
            <mxPoint x="630" y="210" as="sourcePoint" />
            <mxPoint x="690" y="210" as="targetPoint" />
            <Array as="points">
              <mxPoint x="660" y="200" />
            </Array>
          </mxGeometry>
        </mxCell>
        <mxCell id="HoFB2v5wiJ9N7MJh8CdE-18" value="" style="curved=1;endArrow=classic;html=1;rounded=0;exitX=1;exitY=0.5;exitDx=0;exitDy=0;entryX=0;entryY=0.5;entryDx=0;entryDy=0;" edge="1" parent="1" source="HoFB2v5wiJ9N7MJh8CdE-3" target="HoFB2v5wiJ9N7MJh8CdE-4">
          <mxGeometry width="50" height="50" relative="1" as="geometry">
            <mxPoint x="630" y="210" as="sourcePoint" />
            <mxPoint x="690" y="210" as="targetPoint" />
            <Array as="points">
              <mxPoint x="660" y="220" />
            </Array>
          </mxGeometry>
        </mxCell>
        <mxCell id="HoFB2v5wiJ9N7MJh8CdE-19" value="" style="curved=1;endArrow=classic;html=1;rounded=0;exitX=1;exitY=0.5;exitDx=0;exitDy=0;" edge="1" parent="1" source="HoFB2v5wiJ9N7MJh8CdE-4">
          <mxGeometry width="50" height="50" relative="1" as="geometry">
            <mxPoint x="820" y="220" as="sourcePoint" />
            <mxPoint x="870" y="210" as="targetPoint" />
            <Array as="points">
              <mxPoint x="840" y="200" />
            </Array>
          </mxGeometry>
        </mxCell>
        <mxCell id="HoFB2v5wiJ9N7MJh8CdE-20" value="" style="curved=1;endArrow=classic;html=1;rounded=0;exitX=1;exitY=0.5;exitDx=0;exitDy=0;entryX=0;entryY=0.5;entryDx=0;entryDy=0;" edge="1" parent="1" source="HoFB2v5wiJ9N7MJh8CdE-4" target="HoFB2v5wiJ9N7MJh8CdE-5">
          <mxGeometry width="50" height="50" relative="1" as="geometry">
            <mxPoint x="820" y="220" as="sourcePoint" />
            <mxPoint x="880" y="220" as="targetPoint" />
            <Array as="points">
              <mxPoint x="840" y="220" />
            </Array>
          </mxGeometry>
        </mxCell>
        <mxCell id="HoFB2v5wiJ9N7MJh8CdE-22" value="" style="curved=1;endArrow=classic;html=1;rounded=0;entryX=0;entryY=0.5;entryDx=0;entryDy=0;exitX=1;exitY=0.5;exitDx=0;exitDy=0;" edge="1" parent="1" source="HoFB2v5wiJ9N7MJh8CdE-5" target="HoFB2v5wiJ9N7MJh8CdE-6">
          <mxGeometry width="50" height="50" relative="1" as="geometry">
            <mxPoint x="991" y="206" as="sourcePoint" />
            <mxPoint x="1070" y="220" as="targetPoint" />
            <Array as="points">
              <mxPoint x="1030" y="220" />
            </Array>
          </mxGeometry>
        </mxCell>
        <mxCell id="HoFB2v5wiJ9N7MJh8CdE-23" value="" style="curved=1;endArrow=classic;html=1;rounded=0;entryX=0;entryY=0.5;entryDx=0;entryDy=0;exitX=1;exitY=0.5;exitDx=0;exitDy=0;" edge="1" parent="1" source="HoFB2v5wiJ9N7MJh8CdE-5" target="HoFB2v5wiJ9N7MJh8CdE-6">
          <mxGeometry width="50" height="50" relative="1" as="geometry">
            <mxPoint x="1000" y="220" as="sourcePoint" />
            <mxPoint x="1070" y="220" as="targetPoint" />
            <Array as="points">
              <mxPoint x="1030" y="200" />
            </Array>
          </mxGeometry>
        </mxCell>
        <mxCell id="HoFB2v5wiJ9N7MJh8CdE-24" value="" style="curved=1;endArrow=classic;html=1;rounded=0;entryX=0;entryY=0.5;entryDx=0;entryDy=0;exitX=1;exitY=0.5;exitDx=0;exitDy=0;" edge="1" parent="1" source="HoFB2v5wiJ9N7MJh8CdE-6" target="HoFB2v5wiJ9N7MJh8CdE-7">
          <mxGeometry width="50" height="50" relative="1" as="geometry">
            <mxPoint x="1170" y="230" as="sourcePoint" />
            <mxPoint x="1240" y="230" as="targetPoint" />
            <Array as="points">
              <mxPoint x="1200" y="220" />
            </Array>
          </mxGeometry>
        </mxCell>
        <mxCell id="HoFB2v5wiJ9N7MJh8CdE-25" value="" style="curved=1;endArrow=classic;html=1;rounded=0;entryX=0;entryY=0.5;entryDx=0;entryDy=0;exitX=1;exitY=0.5;exitDx=0;exitDy=0;" edge="1" parent="1" source="HoFB2v5wiJ9N7MJh8CdE-6" target="HoFB2v5wiJ9N7MJh8CdE-7">
          <mxGeometry width="50" height="50" relative="1" as="geometry">
            <mxPoint x="1190" y="210" as="sourcePoint" />
            <mxPoint x="1240" y="230" as="targetPoint" />
            <Array as="points">
              <mxPoint x="1200" y="200" />
            </Array>
          </mxGeometry>
        </mxCell>
        <mxCell id="HoFB2v5wiJ9N7MJh8CdE-26" value="" style="curved=1;endArrow=classic;html=1;rounded=0;entryX=0;entryY=0.5;entryDx=0;entryDy=0;exitX=1;exitY=0.5;exitDx=0;exitDy=0;" edge="1" parent="1" source="HoFB2v5wiJ9N7MJh8CdE-7" target="HoFB2v5wiJ9N7MJh8CdE-8">
          <mxGeometry width="50" height="50" relative="1" as="geometry">
            <mxPoint x="1320" y="250" as="sourcePoint" />
            <mxPoint x="1390" y="250" as="targetPoint" />
            <Array as="points">
              <mxPoint x="1360" y="220" />
            </Array>
          </mxGeometry>
        </mxCell>
        <mxCell id="HoFB2v5wiJ9N7MJh8CdE-27" value="" style="curved=1;endArrow=classic;html=1;rounded=0;entryX=0;entryY=0.5;entryDx=0;entryDy=0;exitX=1;exitY=0.5;exitDx=0;exitDy=0;" edge="1" parent="1" source="HoFB2v5wiJ9N7MJh8CdE-7" target="HoFB2v5wiJ9N7MJh8CdE-8">
          <mxGeometry width="50" height="50" relative="1" as="geometry">
            <mxPoint x="1320" y="250" as="sourcePoint" />
            <mxPoint x="1390" y="250" as="targetPoint" />
            <Array as="points">
              <mxPoint x="1360" y="200" />
            </Array>
          </mxGeometry>
        </mxCell>
        <mxCell id="HoFB2v5wiJ9N7MJh8CdE-28" value="Start Registration" style="text;html=1;align=center;verticalAlign=middle;whiteSpace=wrap;rounded=0;" vertex="1" parent="1">
          <mxGeometry x="180" y="170" width="60" height="30" as="geometry" />
        </mxCell>
        <mxCell id="HoFB2v5wiJ9N7MJh8CdE-29" value="Activate Account" style="text;html=1;align=center;verticalAlign=middle;whiteSpace=wrap;rounded=0;" vertex="1" parent="1">
          <mxGeometry x="450" y="170" width="60" height="30" as="geometry" />
        </mxCell>
        <mxCell id="HoFB2v5wiJ9N7MJh8CdE-30" value="Login" style="text;html=1;align=center;verticalAlign=middle;whiteSpace=wrap;rounded=0;" vertex="1" parent="1">
          <mxGeometry x="630" y="170" width="60" height="30" as="geometry" />
        </mxCell>
        <mxCell id="HoFB2v5wiJ9N7MJh8CdE-31" value="Browse Products" style="text;html=1;align=center;verticalAlign=middle;whiteSpace=wrap;rounded=0;" vertex="1" parent="1">
          <mxGeometry x="810" y="170" width="60" height="30" as="geometry" />
        </mxCell>
        <mxCell id="HoFB2v5wiJ9N7MJh8CdE-32" value="Add to Cart" style="text;html=1;align=center;verticalAlign=middle;whiteSpace=wrap;rounded=0;" vertex="1" parent="1">
          <mxGeometry x="1000" y="170" width="60" height="30" as="geometry" />
        </mxCell>
        <mxCell id="HoFB2v5wiJ9N7MJh8CdE-33" value="Checkout" style="text;html=1;align=center;verticalAlign=middle;whiteSpace=wrap;rounded=0;" vertex="1" parent="1">
          <mxGeometry x="1170" y="170" width="60" height="30" as="geometry" />
        </mxCell>
        <mxCell id="HoFB2v5wiJ9N7MJh8CdE-34" value="Place Order" style="text;html=1;align=center;verticalAlign=middle;whiteSpace=wrap;rounded=0;" vertex="1" parent="1">
          <mxGeometry x="1330" y="170" width="60" height="30" as="geometry" />
        </mxCell>
        <mxCell id="HoFB2v5wiJ9N7MJh8CdE-35" value="" style="curved=1;endArrow=classic;html=1;rounded=0;exitX=0.5;exitY=0;exitDx=0;exitDy=0;entryX=0.5;entryY=0;entryDx=0;entryDy=0;" edge="1" parent="1" source="HoFB2v5wiJ9N7MJh8CdE-8" target="HoFB2v5wiJ9N7MJh8CdE-1">
          <mxGeometry width="50" height="50" relative="1" as="geometry">
            <mxPoint x="1350" y="220" as="sourcePoint" />
            <mxPoint x="590" y="110" as="targetPoint" />
            <Array as="points">
              <mxPoint x="830" y="90" />
            </Array>
          </mxGeometry>
        </mxCell>
        <mxCell id="HoFB2v5wiJ9N7MJh8CdE-36" value="" style="curved=1;endArrow=classic;html=1;rounded=0;exitX=0.5;exitY=0;exitDx=0;exitDy=0;entryX=0.5;entryY=0;entryDx=0;entryDy=0;" edge="1" parent="1" source="HoFB2v5wiJ9N7MJh8CdE-8" target="HoFB2v5wiJ9N7MJh8CdE-1">
          <mxGeometry width="50" height="50" relative="1" as="geometry">
            <mxPoint x="1450" y="180" as="sourcePoint" />
            <mxPoint x="120" y="170" as="targetPoint" />
            <Array as="points">
              <mxPoint x="850" y="30" />
            </Array>
          </mxGeometry>
        </mxCell>
        <mxCell id="HoFB2v5wiJ9N7MJh8CdE-37" value="Order Completed" style="text;html=1;align=center;verticalAlign=middle;whiteSpace=wrap;rounded=0;" vertex="1" parent="1">
          <mxGeometry x="730" y="100" width="120" height="30" as="geometry" />
        </mxCell>
        <mxCell id="HoFB2v5wiJ9N7MJh8CdE-69" value="&lt;font style=&quot;font-size: 16px;&quot;&gt;IDLE&lt;/font&gt;" style="ellipse;whiteSpace=wrap;html=1;" vertex="1" parent="1">
          <mxGeometry x="70" y="430" width="120" height="80" as="geometry" />
        </mxCell>
        <mxCell id="HoFB2v5wiJ9N7MJh8CdE-70" value="&lt;font style=&quot;font-size: 16px;&quot;&gt;Registering&lt;/font&gt;" style="ellipse;whiteSpace=wrap;html=1;" vertex="1" parent="1">
          <mxGeometry x="250" y="430" width="210" height="80" as="geometry" />
        </mxCell>
        <mxCell id="HoFB2v5wiJ9N7MJh8CdE-71" value="&lt;font style=&quot;font-size: 16px;&quot;&gt;Active&lt;/font&gt;" style="ellipse;whiteSpace=wrap;html=1;" vertex="1" parent="1">
          <mxGeometry x="520" y="430" width="120" height="80" as="geometry" />
        </mxCell>
        <mxCell id="HoFB2v5wiJ9N7MJh8CdE-72" value="LoggedIn" style="ellipse;whiteSpace=wrap;html=1;" vertex="1" parent="1">
          <mxGeometry x="700" y="430" width="120" height="80" as="geometry" />
        </mxCell>
        <mxCell id="HoFB2v5wiJ9N7MJh8CdE-73" value="&lt;span style=&quot;font-size: 16px;&quot;&gt;Managing Products&lt;/span&gt;" style="ellipse;whiteSpace=wrap;html=1;" vertex="1" parent="1">
          <mxGeometry x="880" y="430" width="120" height="80" as="geometry" />
        </mxCell>
        <mxCell id="HoFB2v5wiJ9N7MJh8CdE-74" value="&lt;font style=&quot;font-size: 16px;&quot;&gt;Managing Orders&lt;/font&gt;" style="ellipse;whiteSpace=wrap;html=1;" vertex="1" parent="1">
          <mxGeometry x="1070" y="430" width="120" height="80" as="geometry" />
        </mxCell>
        <mxCell id="HoFB2v5wiJ9N7MJh8CdE-75" value="&lt;font style=&quot;font-size: 16px;&quot;&gt;Managing Events&lt;/font&gt;" style="ellipse;whiteSpace=wrap;html=1;" vertex="1" parent="1">
          <mxGeometry x="1230" y="430" width="120" height="80" as="geometry" />
        </mxCell>
        <mxCell id="HoFB2v5wiJ9N7MJh8CdE-76" value="&lt;font style=&quot;font-size: 16px;&quot;&gt;Request Withdrawla&lt;/font&gt;" style="ellipse;whiteSpace=wrap;html=1;" vertex="1" parent="1">
          <mxGeometry x="1390" y="430" width="120" height="80" as="geometry" />
        </mxCell>
        <mxCell id="HoFB2v5wiJ9N7MJh8CdE-77" value="" style="curved=1;endArrow=classic;html=1;rounded=0;exitX=1;exitY=0.5;exitDx=0;exitDy=0;entryX=0;entryY=0.5;entryDx=0;entryDy=0;" edge="1" parent="1" source="HoFB2v5wiJ9N7MJh8CdE-69" target="HoFB2v5wiJ9N7MJh8CdE-70">
          <mxGeometry width="50" height="50" relative="1" as="geometry">
            <mxPoint x="260" y="530" as="sourcePoint" />
            <mxPoint x="310" y="480" as="targetPoint" />
            <Array as="points">
              <mxPoint x="220" y="460" />
            </Array>
          </mxGeometry>
        </mxCell>
        <mxCell id="HoFB2v5wiJ9N7MJh8CdE-78" value="" style="curved=1;endArrow=classic;html=1;rounded=0;exitX=1;exitY=0.5;exitDx=0;exitDy=0;entryX=0;entryY=0.5;entryDx=0;entryDy=0;" edge="1" parent="1" source="HoFB2v5wiJ9N7MJh8CdE-69" target="HoFB2v5wiJ9N7MJh8CdE-70">
          <mxGeometry width="50" height="50" relative="1" as="geometry">
            <mxPoint x="200" y="480" as="sourcePoint" />
            <mxPoint x="260" y="480" as="targetPoint" />
            <Array as="points">
              <mxPoint x="220" y="480" />
            </Array>
          </mxGeometry>
        </mxCell>
        <mxCell id="HoFB2v5wiJ9N7MJh8CdE-79" value="" style="curved=1;endArrow=classic;html=1;rounded=0;entryX=0;entryY=0.5;entryDx=0;entryDy=0;exitX=1;exitY=0.5;exitDx=0;exitDy=0;" edge="1" parent="1" source="HoFB2v5wiJ9N7MJh8CdE-70" target="HoFB2v5wiJ9N7MJh8CdE-71">
          <mxGeometry width="50" height="50" relative="1" as="geometry">
            <mxPoint x="470" y="470" as="sourcePoint" />
            <mxPoint x="520" y="470" as="targetPoint" />
            <Array as="points">
              <mxPoint x="490" y="460" />
            </Array>
          </mxGeometry>
        </mxCell>
        <mxCell id="HoFB2v5wiJ9N7MJh8CdE-80" value="" style="curved=1;endArrow=classic;html=1;rounded=0;exitX=1;exitY=0.5;exitDx=0;exitDy=0;entryX=0;entryY=0.5;entryDx=0;entryDy=0;" edge="1" parent="1" source="HoFB2v5wiJ9N7MJh8CdE-70" target="HoFB2v5wiJ9N7MJh8CdE-71">
          <mxGeometry width="50" height="50" relative="1" as="geometry">
            <mxPoint x="460" y="470" as="sourcePoint" />
            <mxPoint x="520" y="470" as="targetPoint" />
            <Array as="points">
              <mxPoint x="490" y="480" />
            </Array>
          </mxGeometry>
        </mxCell>
        <mxCell id="HoFB2v5wiJ9N7MJh8CdE-81" value="" style="curved=1;endArrow=classic;html=1;rounded=0;exitX=1;exitY=0.5;exitDx=0;exitDy=0;entryX=0;entryY=0.5;entryDx=0;entryDy=0;" edge="1" parent="1" source="HoFB2v5wiJ9N7MJh8CdE-71" target="HoFB2v5wiJ9N7MJh8CdE-72">
          <mxGeometry width="50" height="50" relative="1" as="geometry">
            <mxPoint x="640" y="470" as="sourcePoint" />
            <mxPoint x="700" y="470" as="targetPoint" />
            <Array as="points">
              <mxPoint x="670" y="460" />
            </Array>
          </mxGeometry>
        </mxCell>
        <mxCell id="HoFB2v5wiJ9N7MJh8CdE-82" value="" style="curved=1;endArrow=classic;html=1;rounded=0;exitX=1;exitY=0.5;exitDx=0;exitDy=0;entryX=0;entryY=0.5;entryDx=0;entryDy=0;" edge="1" parent="1" source="HoFB2v5wiJ9N7MJh8CdE-71" target="HoFB2v5wiJ9N7MJh8CdE-72">
          <mxGeometry width="50" height="50" relative="1" as="geometry">
            <mxPoint x="640" y="470" as="sourcePoint" />
            <mxPoint x="700" y="470" as="targetPoint" />
            <Array as="points">
              <mxPoint x="670" y="480" />
            </Array>
          </mxGeometry>
        </mxCell>
        <mxCell id="HoFB2v5wiJ9N7MJh8CdE-83" value="" style="curved=1;endArrow=classic;html=1;rounded=0;exitX=1;exitY=0.5;exitDx=0;exitDy=0;" edge="1" parent="1" source="HoFB2v5wiJ9N7MJh8CdE-72">
          <mxGeometry width="50" height="50" relative="1" as="geometry">
            <mxPoint x="830" y="480" as="sourcePoint" />
            <mxPoint x="880" y="470" as="targetPoint" />
            <Array as="points">
              <mxPoint x="850" y="460" />
            </Array>
          </mxGeometry>
        </mxCell>
        <mxCell id="HoFB2v5wiJ9N7MJh8CdE-84" value="" style="curved=1;endArrow=classic;html=1;rounded=0;exitX=1;exitY=0.5;exitDx=0;exitDy=0;entryX=0;entryY=0.5;entryDx=0;entryDy=0;" edge="1" parent="1" source="HoFB2v5wiJ9N7MJh8CdE-72" target="HoFB2v5wiJ9N7MJh8CdE-73">
          <mxGeometry width="50" height="50" relative="1" as="geometry">
            <mxPoint x="830" y="480" as="sourcePoint" />
            <mxPoint x="890" y="480" as="targetPoint" />
            <Array as="points">
              <mxPoint x="850" y="480" />
            </Array>
          </mxGeometry>
        </mxCell>
        <mxCell id="HoFB2v5wiJ9N7MJh8CdE-85" value="" style="curved=1;endArrow=classic;html=1;rounded=0;entryX=0;entryY=0.5;entryDx=0;entryDy=0;exitX=1;exitY=0.5;exitDx=0;exitDy=0;" edge="1" parent="1" source="HoFB2v5wiJ9N7MJh8CdE-73" target="HoFB2v5wiJ9N7MJh8CdE-74">
          <mxGeometry width="50" height="50" relative="1" as="geometry">
            <mxPoint x="1001" y="466" as="sourcePoint" />
            <mxPoint x="1080" y="480" as="targetPoint" />
            <Array as="points">
              <mxPoint x="1040" y="480" />
            </Array>
          </mxGeometry>
        </mxCell>
        <mxCell id="HoFB2v5wiJ9N7MJh8CdE-86" value="" style="curved=1;endArrow=classic;html=1;rounded=0;entryX=0;entryY=0.5;entryDx=0;entryDy=0;exitX=1;exitY=0.5;exitDx=0;exitDy=0;" edge="1" parent="1" source="HoFB2v5wiJ9N7MJh8CdE-73" target="HoFB2v5wiJ9N7MJh8CdE-74">
          <mxGeometry width="50" height="50" relative="1" as="geometry">
            <mxPoint x="1010" y="480" as="sourcePoint" />
            <mxPoint x="1080" y="480" as="targetPoint" />
            <Array as="points">
              <mxPoint x="1040" y="460" />
            </Array>
          </mxGeometry>
        </mxCell>
        <mxCell id="HoFB2v5wiJ9N7MJh8CdE-87" value="" style="curved=1;endArrow=classic;html=1;rounded=0;entryX=0;entryY=0.5;entryDx=0;entryDy=0;exitX=1;exitY=0.5;exitDx=0;exitDy=0;" edge="1" parent="1" source="HoFB2v5wiJ9N7MJh8CdE-74" target="HoFB2v5wiJ9N7MJh8CdE-75">
          <mxGeometry width="50" height="50" relative="1" as="geometry">
            <mxPoint x="1180" y="490" as="sourcePoint" />
            <mxPoint x="1250" y="490" as="targetPoint" />
            <Array as="points">
              <mxPoint x="1210" y="480" />
            </Array>
          </mxGeometry>
        </mxCell>
        <mxCell id="HoFB2v5wiJ9N7MJh8CdE-88" value="" style="curved=1;endArrow=classic;html=1;rounded=0;entryX=0;entryY=0.5;entryDx=0;entryDy=0;exitX=1;exitY=0.5;exitDx=0;exitDy=0;" edge="1" parent="1" source="HoFB2v5wiJ9N7MJh8CdE-74" target="HoFB2v5wiJ9N7MJh8CdE-75">
          <mxGeometry width="50" height="50" relative="1" as="geometry">
            <mxPoint x="1200" y="470" as="sourcePoint" />
            <mxPoint x="1250" y="490" as="targetPoint" />
            <Array as="points">
              <mxPoint x="1210" y="460" />
            </Array>
          </mxGeometry>
        </mxCell>
        <mxCell id="HoFB2v5wiJ9N7MJh8CdE-89" value="" style="curved=1;endArrow=classic;html=1;rounded=0;entryX=0;entryY=0.5;entryDx=0;entryDy=0;exitX=1;exitY=0.5;exitDx=0;exitDy=0;" edge="1" parent="1" source="HoFB2v5wiJ9N7MJh8CdE-75" target="HoFB2v5wiJ9N7MJh8CdE-76">
          <mxGeometry width="50" height="50" relative="1" as="geometry">
            <mxPoint x="1330" y="510" as="sourcePoint" />
            <mxPoint x="1400" y="510" as="targetPoint" />
            <Array as="points">
              <mxPoint x="1370" y="480" />
            </Array>
          </mxGeometry>
        </mxCell>
        <mxCell id="HoFB2v5wiJ9N7MJh8CdE-90" value="" style="curved=1;endArrow=classic;html=1;rounded=0;entryX=0;entryY=0.5;entryDx=0;entryDy=0;exitX=1;exitY=0.5;exitDx=0;exitDy=0;" edge="1" parent="1" source="HoFB2v5wiJ9N7MJh8CdE-75" target="HoFB2v5wiJ9N7MJh8CdE-76">
          <mxGeometry width="50" height="50" relative="1" as="geometry">
            <mxPoint x="1330" y="510" as="sourcePoint" />
            <mxPoint x="1400" y="510" as="targetPoint" />
            <Array as="points">
              <mxPoint x="1370" y="460" />
            </Array>
          </mxGeometry>
        </mxCell>
        <mxCell id="HoFB2v5wiJ9N7MJh8CdE-91" value="Start Registration" style="text;html=1;align=center;verticalAlign=middle;whiteSpace=wrap;rounded=0;" vertex="1" parent="1">
          <mxGeometry x="190" y="430" width="60" height="30" as="geometry" />
        </mxCell>
        <mxCell id="HoFB2v5wiJ9N7MJh8CdE-92" value="Activate Account" style="text;html=1;align=center;verticalAlign=middle;whiteSpace=wrap;rounded=0;" vertex="1" parent="1">
          <mxGeometry x="460" y="430" width="60" height="30" as="geometry" />
        </mxCell>
        <mxCell id="HoFB2v5wiJ9N7MJh8CdE-93" value="Login" style="text;html=1;align=center;verticalAlign=middle;whiteSpace=wrap;rounded=0;" vertex="1" parent="1">
          <mxGeometry x="640" y="430" width="60" height="30" as="geometry" />
        </mxCell>
        <mxCell id="HoFB2v5wiJ9N7MJh8CdE-94" value="Manage Products" style="text;html=1;align=center;verticalAlign=middle;whiteSpace=wrap;rounded=0;" vertex="1" parent="1">
          <mxGeometry x="820" y="430" width="60" height="30" as="geometry" />
        </mxCell>
        <mxCell id="HoFB2v5wiJ9N7MJh8CdE-95" value="View Orders" style="text;html=1;align=center;verticalAlign=middle;whiteSpace=wrap;rounded=0;" vertex="1" parent="1">
          <mxGeometry x="1010" y="430" width="60" height="30" as="geometry" />
        </mxCell>
        <mxCell id="HoFB2v5wiJ9N7MJh8CdE-96" value="Manage Events" style="text;html=1;align=center;verticalAlign=middle;whiteSpace=wrap;rounded=0;" vertex="1" parent="1">
          <mxGeometry x="1180" y="430" width="60" height="30" as="geometry" />
        </mxCell>
        <mxCell id="HoFB2v5wiJ9N7MJh8CdE-97" value="Request Withdrawals" style="text;html=1;align=center;verticalAlign=middle;whiteSpace=wrap;rounded=0;" vertex="1" parent="1">
          <mxGeometry x="1340" y="420" width="60" height="30" as="geometry" />
        </mxCell>
        <mxCell id="HoFB2v5wiJ9N7MJh8CdE-98" value="" style="curved=1;endArrow=classic;html=1;rounded=0;exitX=0.5;exitY=0;exitDx=0;exitDy=0;entryX=0.5;entryY=0;entryDx=0;entryDy=0;" edge="1" parent="1" source="HoFB2v5wiJ9N7MJh8CdE-76" target="HoFB2v5wiJ9N7MJh8CdE-69">
          <mxGeometry width="50" height="50" relative="1" as="geometry">
            <mxPoint x="1360" y="480" as="sourcePoint" />
            <mxPoint x="600" y="370" as="targetPoint" />
            <Array as="points">
              <mxPoint x="840" y="350" />
            </Array>
          </mxGeometry>
        </mxCell>
        <mxCell id="HoFB2v5wiJ9N7MJh8CdE-99" value="" style="curved=1;endArrow=classic;html=1;rounded=0;exitX=0.5;exitY=0;exitDx=0;exitDy=0;entryX=0.5;entryY=0;entryDx=0;entryDy=0;" edge="1" parent="1" source="HoFB2v5wiJ9N7MJh8CdE-76" target="HoFB2v5wiJ9N7MJh8CdE-69">
          <mxGeometry width="50" height="50" relative="1" as="geometry">
            <mxPoint x="1460" y="440" as="sourcePoint" />
            <mxPoint x="130" y="430" as="targetPoint" />
            <Array as="points">
              <mxPoint x="860" y="290" />
            </Array>
          </mxGeometry>
        </mxCell>
        <mxCell id="HoFB2v5wiJ9N7MJh8CdE-100" value="Withdrawl Completed" style="text;html=1;align=center;verticalAlign=middle;whiteSpace=wrap;rounded=0;" vertex="1" parent="1">
          <mxGeometry x="740" y="360" width="120" height="30" as="geometry" />
        </mxCell>
        <mxCell id="HoFB2v5wiJ9N7MJh8CdE-101" value="&lt;font style=&quot;font-size: 16px;&quot;&gt;Created&lt;/font&gt;" style="ellipse;whiteSpace=wrap;html=1;" vertex="1" parent="1">
          <mxGeometry x="375" y="610" width="120" height="80" as="geometry" />
        </mxCell>
        <mxCell id="HoFB2v5wiJ9N7MJh8CdE-102" value="&lt;font style=&quot;font-size: 16px;&quot;&gt;Paid&lt;/font&gt;" style="ellipse;whiteSpace=wrap;html=1;" vertex="1" parent="1">
          <mxGeometry x="555" y="610" width="210" height="80" as="geometry" />
        </mxCell>
        <mxCell id="HoFB2v5wiJ9N7MJh8CdE-103" value="&lt;font style=&quot;font-size: 16px;&quot;&gt;Shipped&lt;/font&gt;" style="ellipse;whiteSpace=wrap;html=1;" vertex="1" parent="1">
          <mxGeometry x="825" y="610" width="120" height="80" as="geometry" />
        </mxCell>
        <mxCell id="HoFB2v5wiJ9N7MJh8CdE-104" value="Delievered" style="ellipse;whiteSpace=wrap;html=1;" vertex="1" parent="1">
          <mxGeometry x="1005" y="610" width="120" height="80" as="geometry" />
        </mxCell>
        <mxCell id="HoFB2v5wiJ9N7MJh8CdE-105" value="&lt;span style=&quot;font-size: 16px;&quot;&gt;Completed&lt;/span&gt;" style="ellipse;whiteSpace=wrap;html=1;" vertex="1" parent="1">
          <mxGeometry x="1185" y="610" width="120" height="80" as="geometry" />
        </mxCell>
        <mxCell id="HoFB2v5wiJ9N7MJh8CdE-106" value="" style="curved=1;endArrow=classic;html=1;rounded=0;exitX=1;exitY=0.5;exitDx=0;exitDy=0;entryX=0;entryY=0.5;entryDx=0;entryDy=0;" edge="1" parent="1" source="HoFB2v5wiJ9N7MJh8CdE-101" target="HoFB2v5wiJ9N7MJh8CdE-102">
          <mxGeometry width="50" height="50" relative="1" as="geometry">
            <mxPoint x="565" y="710" as="sourcePoint" />
            <mxPoint x="615" y="660" as="targetPoint" />
            <Array as="points">
              <mxPoint x="525" y="640" />
            </Array>
          </mxGeometry>
        </mxCell>
        <mxCell id="HoFB2v5wiJ9N7MJh8CdE-107" value="" style="curved=1;endArrow=classic;html=1;rounded=0;exitX=1;exitY=0.5;exitDx=0;exitDy=0;entryX=0;entryY=0.5;entryDx=0;entryDy=0;" edge="1" parent="1" source="HoFB2v5wiJ9N7MJh8CdE-101" target="HoFB2v5wiJ9N7MJh8CdE-102">
          <mxGeometry width="50" height="50" relative="1" as="geometry">
            <mxPoint x="505" y="660" as="sourcePoint" />
            <mxPoint x="565" y="660" as="targetPoint" />
            <Array as="points">
              <mxPoint x="525" y="660" />
            </Array>
          </mxGeometry>
        </mxCell>
        <mxCell id="HoFB2v5wiJ9N7MJh8CdE-108" value="" style="curved=1;endArrow=classic;html=1;rounded=0;entryX=0;entryY=0.5;entryDx=0;entryDy=0;exitX=1;exitY=0.5;exitDx=0;exitDy=0;" edge="1" parent="1" source="HoFB2v5wiJ9N7MJh8CdE-102" target="HoFB2v5wiJ9N7MJh8CdE-103">
          <mxGeometry width="50" height="50" relative="1" as="geometry">
            <mxPoint x="775" y="650" as="sourcePoint" />
            <mxPoint x="825" y="650" as="targetPoint" />
            <Array as="points">
              <mxPoint x="795" y="640" />
            </Array>
          </mxGeometry>
        </mxCell>
        <mxCell id="HoFB2v5wiJ9N7MJh8CdE-109" value="" style="curved=1;endArrow=classic;html=1;rounded=0;exitX=1;exitY=0.5;exitDx=0;exitDy=0;entryX=0;entryY=0.5;entryDx=0;entryDy=0;" edge="1" parent="1" source="HoFB2v5wiJ9N7MJh8CdE-102" target="HoFB2v5wiJ9N7MJh8CdE-103">
          <mxGeometry width="50" height="50" relative="1" as="geometry">
            <mxPoint x="765" y="650" as="sourcePoint" />
            <mxPoint x="825" y="650" as="targetPoint" />
            <Array as="points">
              <mxPoint x="795" y="660" />
            </Array>
          </mxGeometry>
        </mxCell>
        <mxCell id="HoFB2v5wiJ9N7MJh8CdE-110" value="" style="curved=1;endArrow=classic;html=1;rounded=0;exitX=1;exitY=0.5;exitDx=0;exitDy=0;entryX=0;entryY=0.5;entryDx=0;entryDy=0;" edge="1" parent="1" source="HoFB2v5wiJ9N7MJh8CdE-103" target="HoFB2v5wiJ9N7MJh8CdE-104">
          <mxGeometry width="50" height="50" relative="1" as="geometry">
            <mxPoint x="945" y="650" as="sourcePoint" />
            <mxPoint x="1005" y="650" as="targetPoint" />
            <Array as="points">
              <mxPoint x="975" y="640" />
            </Array>
          </mxGeometry>
        </mxCell>
        <mxCell id="HoFB2v5wiJ9N7MJh8CdE-111" value="" style="curved=1;endArrow=classic;html=1;rounded=0;exitX=1;exitY=0.5;exitDx=0;exitDy=0;entryX=0;entryY=0.5;entryDx=0;entryDy=0;" edge="1" parent="1" source="HoFB2v5wiJ9N7MJh8CdE-103" target="HoFB2v5wiJ9N7MJh8CdE-104">
          <mxGeometry width="50" height="50" relative="1" as="geometry">
            <mxPoint x="945" y="650" as="sourcePoint" />
            <mxPoint x="1005" y="650" as="targetPoint" />
            <Array as="points">
              <mxPoint x="975" y="660" />
            </Array>
          </mxGeometry>
        </mxCell>
        <mxCell id="HoFB2v5wiJ9N7MJh8CdE-112" value="" style="curved=1;endArrow=classic;html=1;rounded=0;exitX=1;exitY=0.5;exitDx=0;exitDy=0;" edge="1" parent="1" source="HoFB2v5wiJ9N7MJh8CdE-104">
          <mxGeometry width="50" height="50" relative="1" as="geometry">
            <mxPoint x="1135" y="660" as="sourcePoint" />
            <mxPoint x="1185" y="650" as="targetPoint" />
            <Array as="points">
              <mxPoint x="1155" y="640" />
            </Array>
          </mxGeometry>
        </mxCell>
        <mxCell id="HoFB2v5wiJ9N7MJh8CdE-113" value="" style="curved=1;endArrow=classic;html=1;rounded=0;exitX=1;exitY=0.5;exitDx=0;exitDy=0;entryX=0;entryY=0.5;entryDx=0;entryDy=0;" edge="1" parent="1" source="HoFB2v5wiJ9N7MJh8CdE-104" target="HoFB2v5wiJ9N7MJh8CdE-105">
          <mxGeometry width="50" height="50" relative="1" as="geometry">
            <mxPoint x="1135" y="660" as="sourcePoint" />
            <mxPoint x="1195" y="660" as="targetPoint" />
            <Array as="points">
              <mxPoint x="1155" y="660" />
            </Array>
          </mxGeometry>
        </mxCell>
        <mxCell id="HoFB2v5wiJ9N7MJh8CdE-114" value="Payment Successfull" style="text;html=1;align=center;verticalAlign=middle;whiteSpace=wrap;rounded=0;" vertex="1" parent="1">
          <mxGeometry x="495" y="610" width="60" height="30" as="geometry" />
        </mxCell>
        <mxCell id="HoFB2v5wiJ9N7MJh8CdE-115" value="Shipped" style="text;html=1;align=center;verticalAlign=middle;whiteSpace=wrap;rounded=0;" vertex="1" parent="1">
          <mxGeometry x="765" y="610" width="60" height="30" as="geometry" />
        </mxCell>
        <mxCell id="HoFB2v5wiJ9N7MJh8CdE-116" value="Deliever" style="text;html=1;align=center;verticalAlign=middle;whiteSpace=wrap;rounded=0;" vertex="1" parent="1">
          <mxGeometry x="945" y="610" width="60" height="30" as="geometry" />
        </mxCell>
        <mxCell id="HoFB2v5wiJ9N7MJh8CdE-117" value="Order Completed" style="text;html=1;align=center;verticalAlign=middle;whiteSpace=wrap;rounded=0;" vertex="1" parent="1">
          <mxGeometry x="1125" y="610" width="60" height="30" as="geometry" />
        </mxCell>
        <mxCell id="HoFB2v5wiJ9N7MJh8CdE-119" value="USER" style="text;html=1;align=center;verticalAlign=middle;whiteSpace=wrap;rounded=0;" vertex="1" parent="1">
          <mxGeometry x="770" y="40" width="70" height="30" as="geometry" />
        </mxCell>
        <mxCell id="HoFB2v5wiJ9N7MJh8CdE-121" value="Seller" style="text;html=1;align=center;verticalAlign=middle;whiteSpace=wrap;rounded=0;" vertex="1" parent="1">
          <mxGeometry x="780" y="310" width="70" height="30" as="geometry" />
        </mxCell>
        <mxCell id="HoFB2v5wiJ9N7MJh8CdE-122" value="Order" style="text;html=1;align=center;verticalAlign=middle;whiteSpace=wrap;rounded=0;" vertex="1" parent="1">
          <mxGeometry x="800" y="570" width="70" height="30" as="geometry" />
        </mxCell>
      </root>
    </mxGraphModel>
  </diagram>
</mxfile>
